<svg xmlns="http://www.w3.org/2000/svg" width="1280" height="958" viewBox="0 0 1280 958" role="img" aria-label="ScopeDiff diff report">
  <defs>
    <linearGradient id="bg" x1="0" x2="1" y1="0" y2="1">
      <stop offset="0%" stop-color="#101827"/>
      <stop offset="100%" stop-color="#182235"/>
    </linearGradient>
    <filter id="shadow" x="-8%" y="-12%" width="116%" height="130%">
      <feDropShadow dx="0" dy="18" stdDeviation="18" flood-color="#020617" flood-opacity="0.32"/>
    </filter>
  </defs>
  <rect width="100%" height="100%" rx="24" fill="#e2e8f0"/>
  <rect x="26" y="24" width="1228" height="910" rx="18" fill="url(#bg)" filter="url(#shadow)"/>
  <rect x="26" y="24" width="1228" height="58" rx="18" fill="#0f172a"/>
  <circle cx="60" cy="53" r="8" fill="#fb7185"/>
  <circle cx="88" cy="53" r="8" fill="#fbbf24"/>
  <circle cx="116" cy="53" r="8" fill="#34d399"/>
  <text x="640" y="58" text-anchor="middle" fill="#94a3b8" font-family="DejaVu Sans Mono, Menlo, Consolas, monospace" font-size="15">ScopeDiff diff report</text>
  <g font-family="DejaVu Sans Mono, Menlo, Consolas, monospace" font-size="18">
<text x="34" y="88" fill="#9ae6b4">$ npx scopediff@latest diff --base main</text>
<text x="34" y="112" fill="#dbeafe"></text>
<text x="34" y="136" fill="#93c5fd"># ScopeDiff Report</text>
<text x="34" y="160" fill="#dbeafe"></text>
<text x="34" y="184" fill="#dbeafe">Repo: scopediff-demo-iLBqaN</text>
<text x="34" y="208" fill="#dbeafe">Base: main</text>
<text x="34" y="232" fill="#dbeafe">Head: HEAD</text>
<text x="34" y="256" fill="#dbeafe">Generated: 2026-04-24T07:16:57.607Z</text>
<text x="34" y="280" fill="#dbeafe"></text>
<text x="34" y="304" fill="#93c5fd">## Summary</text>
<text x="34" y="328" fill="#dbeafe"></text>
<text x="34" y="352" fill="#fca5a5">Risk: Critical</text>
<text x="34" y="376" fill="#dbeafe"></text>
<text x="34" y="400" fill="#dbeafe">ScopeDiff found 12 review-worthy agent/tooling changes. Highest risk: critical.</text>
<text x="34" y="424" fill="#dbeafe"></text>
<text x="34" y="448" fill="#dbeafe">Counts:</text>
<text x="34" y="472" fill="#fca5a5">- Critical: 2</text>
<text x="34" y="496" fill="#dbeafe">- High: 7</text>
<text x="34" y="520" fill="#dbeafe">- Medium: 3</text>
<text x="34" y="544" fill="#dbeafe">- Low: 0</text>
<text x="34" y="568" fill="#dbeafe"></text>
<text x="34" y="592" fill="#93c5fd">## Findings</text>
<text x="34" y="616" fill="#dbeafe"></text>
<text x="34" y="640" fill="#93c5fd">### F001 - Workflow secret usage added</text>
<text x="34" y="664" fill="#dbeafe"></text>
<text x="34" y="688" fill="#fca5a5">Severity: Critical</text>
<text x="34" y="712" fill="#dbeafe">Category: workflow</text>
<text x="34" y="736" fill="#dbeafe">File: `.github/workflows/ci.yml:14`</text>
<text x="34" y="760" fill="#dbeafe">Rule: R014</text>
<text x="34" y="784" fill="#dbeafe">Confidence: 0.90</text>
<text x="34" y="808" fill="#dbeafe"></text>
<text x="34" y="832" fill="#dbeafe">Evidence:</text>
<text x="34" y="856" fill="#dbeafe"></text>
<text x="34" y="880" fill="#dbeafe">```text</text>
<text x="34" y="904" fill="#dbeafe">NPM_TOKEN: ${{ secrets.NPM_TOKEN }}</text>
  </g>
</svg>
